Coordinates
version=1
nRows=36
nColumns=30
inDegrees=yes

Units are S.I. units (second, meters, Newtons, ...)
Angles are in degrees.

endheader
time	floatyaw	floatroll	floatpitch	floatx	floaty	floatz	pro_sup_l	deviation_l	flexion_l	cmc_flexion_l	cmc_abduction_l	mp_flexion_l	ip_flexion_l	2mcp_flexion_l	2mcp_abduction_l	2pm_flexion_l	2md_flexion_l	3mcp_flexion_l	3mcp_abduction_l	3pm_flexion_l	3md_flexion_l	4mcp_flexion_l	4mcp_abduction_l	4pm_flexion_l	4md_flexion_l	5mcp_flexion_l	5mcp_abduction_l	5pm_flexion_l	5md_flexion_l
-0.995000	-160.147433	-5.066637	-73.570646	0.079282	-0.182083	-0.016781	100.457697	4.741508	-0.814410	14.175734	12.554069	-25.767784	-42.173667	29.780103	6.949614	43.989193	30.092794	25.214161	4.330246	45.417713	29.824095	14.037394	-4.250831	52.934086	36.481100	1.670121	-8.714016	61.865821	43.726202
-0.985000	-160.147433	-5.066637	-73.570646	0.079290	-0.182079	-0.016781	100.442664	4.735517	-0.799803	14.147796	12.569477	-25.757123	-42.154971	29.770735	6.948828	43.996635	30.100986	25.207698	4.328183	45.402267	29.819118	14.030217	-4.244320	52.913795	36.469996	1.651620	-8.711580	61.860568	43.728395
-0.975000	-160.147433	-5.066637	-73.570646	0.079297	-0.182080	-0.016783	100.427639	4.727562	-0.787094	14.123301	12.567711	-25.755656	-42.128986	29.755859	6.948698	44.012043	30.117166	25.198179	4.326192	45.392685	29.820274	14.021423	-4.237836	52.894252	36.459228	1.626764	-8.709785	61.866259	43.735312
-0.965000	-160.147433	-5.066637	-73.570646	0.079300	-0.182083	-0.016785	100.412402	4.718868	-0.777425	14.102891	12.560625	-25.764220	-42.107773	29.741826	6.951588	44.030822	30.137062	25.190626	4.324466	45.392989	29.827378	14.011866	-4.232584	52.884299	36.453934	1.602321	-8.710624	61.883799	43.746810
-0.955000	-160.147433	-5.066637	-73.570646	0.079297	-0.182088	-0.016783	100.397059	4.710793	-0.770714	14.085873	12.558354	-25.780281	-42.098913	29.733891	6.958722	44.047129	30.156121	25.187219	4.323545	45.404980	29.839577	14.001870	-4.229288	52.889486	36.457423	1.583626	-8.715221	61.910146	43.761225
-0.945000	-160.147433	-5.066637	-73.570646	0.079287	-0.182092	-0.016778	100.381094	4.703857	-0.765772	14.070227	12.564917	-25.799999	-42.103970	29.734637	6.968986	44.056644	30.171189	25.186637	4.323884	45.426813	29.855107	13.991898	-4.227998	52.908238	36.468887	1.571566	-8.723219	61.939256	43.776141
-0.935000	-160.147433	-5.066637	-73.570646	0.079274	-0.182096	-0.016769	100.362869	4.697368	-0.760619	14.052824	12.577684	-25.819939	-42.119334	29.743315	6.979268	44.057720	30.180905	25.185344	4.325440	45.452868	29.871204	13.982909	-4.228234	52.931653	36.483356	1.562073	-8.732778	61.964041	43.789333
-0.925000	-160.147433	-5.066637	-73.570646	0.079263	-0.182098	-0.016760	100.340347	4.689932	-0.753018	14.030091	12.589898	-25.837563	-42.138371	29.756426	6.986063	44.050810	30.185086	25.179782	4.327698	45.475348	29.884622	13.976010	-4.229364	52.947611	36.494170	1.548605	-8.741239	61.978750	43.799465
-0.915000	-160.147433	-5.066637	-73.570646	0.079256	-0.182100	-0.016752	100.312710	4.680531	-0.741217	13.999281	12.594350	-25.850742	-42.153804	29.769380	6.987242	44.037597	30.184108	25.168252	4.330111	45.487129	29.892744	13.971776	-4.230976	52.947094	36.496545	1.526325	-8.746199	61.981090	43.806410
-0.905000	-160.147433	-5.066637	-73.570646	0.079257	-0.182099	-0.016746	100.281743	4.669467	-0.724786	13.959962	12.586503	-25.857200	-42.159583	29.778416	6.982994	44.020892	30.178901	25.151767	4.332515	45.484600	29.894712	13.969817	-4.233015	52.929211	36.490147	1.495552	-8.746541	61.973237	43.811113
-0.895000	-160.147433	-5.066637	-73.570646	0.079263	-0.182094	-0.016742	100.251784	4.658507	-0.705150	13.914967	12.566132	-25.854732	-42.151929	29.781690	6.975602	44.005020	30.171346	25.133635	4.335151	45.469158	29.891887	13.968797	-4.235687	52.902142	36.479248	1.462249	-8.742871	61.961022	43.815022
-0.885000	-160.147433	-5.066637	-73.570646	0.079274	-0.182086	-0.016739	100.227788	4.649949	-0.685399	13.870032	12.537318	-25.842550	-42.129915	29.779190	6.968276	43.995468	30.164400	25.118011	4.338292	45.446637	29.887342	13.966784	-4.239252	52.879463	36.470488	1.434976	-8.737101	61.951439	43.819352
-0.875000	-160.147433	-5.066637	-73.570646	0.079283	-0.182076	-0.016735	100.212382	4.645095	-0.669188	13.831980	12.507091	-25.823058	-42.096037	29.772089	6.963612	43.997126	30.161448	25.108001	4.341837	45.424941	29.884654	13.961722	-4.243865	52.873772	36.469542	1.419941	-8.731411	61.949727	43.824642
-0.865000	-160.147433	-5.066637	-73.570646	0.079289	-0.182067	-0.016732	100.203951	4.643171	-0.659047	13.806133	12.483030	-25.802531	-42.056407	29.762282	6.962433	44.011789	30.164987	25.104201	4.345233	45.410872	29.886526	13.951941	-4.249503	52.890921	36.478504	1.417142	-8.727225	61.957548	43.830832
-0.855000	-160.147433	-5.066637	-73.570646	0.079290	-0.182064	-0.016729	100.197519	4.641732	-0.654927	13.794227	12.470380	-25.789323	-42.019468	29.752103	6.963671	44.036668	30.175430	25.104332	4.347805	45.407480	29.893771	13.936642	-4.255939	52.927727	36.495204	1.420100	-8.724723	61.972976	43.837617
-0.845000	-160.147433	-5.066637	-73.570646	0.079289	-0.182065	-0.016728	100.188253	4.638489	-0.653886	13.793922	12.469875	-25.789937	-41.992883	29.743714	6.965369	44.065347	30.190945	25.104212	4.349221	45.413079	29.905046	13.916267	-4.262724	52.974070	36.514636	1.419588	-8.723021	61.991750	43.844543
-0.835000	-160.147433	-5.066637	-73.570646	0.079286	-0.182068	-0.016727	100.175128	4.633344	-0.651344	13.800115	12.477556	-25.805218	-41.980035	29.738165	6.966119	44.090858	30.208463	25.099678	4.349700	45.422377	29.917396	13.892558	-4.269179	53.017864	36.531451	1.409147	-8.720732	62.008842	43.850679
-0.825000	-160.147433	-5.066637	-73.570646	0.079286	-0.182068	-0.016726	100.161890	4.628993	-0.643353	13.807171	12.486826	-25.829354	-41.978539	29.734920	6.965909	44.108762	30.224953	25.088589	4.349829	45.429057	29.927323	13.868151	-4.274441	53.049991	36.542083	1.388812	-8.716551	62.019838	43.854380
-0.815000	-160.147433	-5.066637	-73.570646	0.079288	-0.182061	-0.016720	100.154412	4.629501	-0.628651	13.810809	12.491450	-25.852605	-41.981928	29.732575	6.965827	44.118126	30.237975	25.071996	4.350121	45.428357	29.931871	13.845766	-4.277655	53.066774	36.545488	1.364565	-8.709694	62.022121	43.853748
-0.805000	-160.147433	-5.066637	-73.570646	0.079293	-0.182046	-0.016708	100.156345	4.637712	-0.609252	13.808858	12.487741	-25.866203	-41.983430	29.730404	6.966956	44.120305	30.245502	25.053839	4.350665	45.418418	29.929377	13.827353	-4.278266	53.069403	36.542531	1.344130	-8.700191	62.015736	43.847773
-0.795000	-160.147433	-5.066637	-73.570646	0.079301	-0.182028	-0.016690	100.166246	4.653215	-0.589213	13.800899	12.475272	-25.866501	-41.979289	29.729412	6.969362	44.117293	30.246004	25.039158	4.351126	45.400262	29.919895	13.813574	-4.276258	53.061578	36.534858	1.332252	-8.689051	62.003473	43.837304
-0.785000	-160.147433	-5.066637	-73.570646	0.079309	-0.182012	-0.016669	100.178023	4.672109	-0.572376	13.787315	12.456750	-25.856090	-41.969746	29.731879	6.971908	44.111327	30.239387	25.031649	4.351066	45.377058	29.905405	13.803836	-4.272181	53.047256	36.524129	1.328565	-8.678166	61.989839	43.825034
-0.775000	-160.147433	-5.066637	-73.570646	0.079316	-0.182003	-0.016648	100.184008	4.688571	-0.560547	13.768479	12.437741	-25.841551	-41.957736	29.739853	6.973012	44.105596	30.228112	25.032033	4.350305	45.353277	29.889611	13.796910	-4.266932	53.029624	36.511926	1.328909	-8.669855	61.979292	43.814445
-0.765000	-160.147433	-5.066637	-73.570646	0.079320	-0.182000	-0.016632	100.178541	4.697316	-0.553168	13.744606	12.425920	-25.829459	-41.946835	29.753939	6.971767	44.104406	30.217030	25.038363	4.349024	45.333636	29.876913	13.791889	-4.261411	53.011121	36.499949	1.328634	-8.666109	61.974715	43.808426
-0.755000	-160.147433	-5.066637	-73.570646	0.079320	-0.182003	-0.016621	100.160280	4.695817	-0.548362	13.716225	12.428932	-25.822911	-41.939598	29.773230	6.968601	44.111625	30.211315	25.047898	4.347581	45.321632	29.870619	13.788971	-4.256198	52.993629	36.489908	1.325557	-8.667817	61.976921	43.808336
-0.745000	-160.147433	-5.066637	-73.570646	0.079318	-0.182006	-0.016616	100.132596	4.685442	-0.544324	13.684763	12.450985	-25.820362	-41.936555	29.795970	6.964997	44.128134	30.213601	25.058837	4.346283	45.318084	29.871361	13.789432	-4.251368	52.978176	36.482944	1.320931	-8.674371	61.985305	43.813856
-0.735000	-160.147433	-5.066637	-73.570646	0.079314	-0.182007	-0.016616	100.102172	4.670985	-0.540120	13.652644	12.490048	-25.817254	-41.936001	29.820134	6.962489	44.150404	30.222356	25.070520	4.345345	45.320659	29.876838	13.794658	-4.246536	52.964396	36.478985	1.318103	-8.683932	61.999058	43.823526
-0.725000	-160.147433	-5.066637	-73.570646	0.079311	-0.182003	-0.016615	100.076434	4.658575	-0.535697	13.622753	12.538027	-25.809440	-41.935037	29.843676	6.961774	44.171562	30.232617	25.082363	4.345012	45.324847	29.883083	13.804896	-4.241203	52.950465	36.476650	1.319899	-8.694326	62.018177	43.835674
-0.715000	-160.147433	-5.066637	-73.570646	0.079310	-0.181995	-0.016613	100.060839	4.652750	-0.531511	13.597609	12.584493	-25.796364	-41.931904	29.864811	6.962634	44.184443	30.238506	25.093021	4.345662	45.325839	29.886346	13.818791	-4.235326	52.933949	36.473933	1.326451	-8.704106	62.043685	43.849271
-0.705000	-160.147433	-5.066637	-73.570646	0.079312	-0.181985	-0.016607	100.057318	4.654183	-0.528089	13.578747	12.621941	-25.782183	-41.928471	29.882503	6.964610	44.184805	30.235972	25.100783	4.347708	45.320310	29.884458	13.834092	-4.229758	52.913179	36.469276	1.334777	-8.713128	62.076815	43.864200
-0.695000	-160.147433	-5.066637	-73.570646	0.079317	-0.181975	-0.016601	100.064545	4.659463	-0.525498	13.566516	12.649317	-25.774176	-41.930871	29.896645	6.967664	44.173014	30.224466	25.104649	4.351292	45.307479	29.877347	13.848843	-4.226147	52.888293	36.462328	1.340153	-8.722182	62.117444	43.880693
-0.685000	-160.147433	-5.066637	-73.570646	0.079323	-0.181966	-0.016600	100.079560	4.663236	-0.522585	13.560105	12.671642	-25.779213	-41.946890	29.907535	6.972130	44.153453	30.206934	25.104867	4.355895	45.289370	29.866937	13.862004	-4.226150	52.861152	36.453868	1.338166	-8.731833	62.162586	43.898254
-0.675000	-160.147433	-5.066637	-73.570646	0.079327	-0.181954	-0.016609	100.099429	4.661583	-0.516458	13.557536	12.696105	-25.800052	-41.981007	29.915113	6.977985	44.131985	30.188237	25.102567	4.360169	45.270257	29.856598	13.873230	-4.230263	52.834197	36.444995	1.326324	-8.741297	62.206212	43.914924
-0.665000	-160.147433	-5.066637	-73.570646	0.079325	-0.181935	-0.016632	100.121898	4.654815	-0.503107	13.555645	12.727094	-25.833457	-42.030155	29.918914	6.984164	44.112936	30.172779	25.099168	4.362255	45.255407	29.850095	13.882385	-4.236961	52.809274	36.436359	1.304956	-8.748299	62.241260	43.927712
-0.655000	-160.147433	-5.066637	-73.570646	0.079316	-0.181901	-0.016669	100.145030	4.648171	-0.479530	13.550326	12.763120	-25.871261	-42.083247	29.918967	6.988647	44.097449	30.162657	25.096131	4.360639	45.249539	29.850295	13.889382	-4.242828	52.787611	36.428204	1.277536	-8.750175	62.263166	43.934090
-0.645000	-160.147433	-5.066637	-73.570646	0.079297	-0.181848	-0.016720	100.166583	4.650020	-0.446318	13.537233	12.797186	-25.903882	-42.124988	29.916553	6.989395	44.084236	30.157486	25.094768	4.355077	45.255702	29.858353	13.894305	-4.243899	52.770992	36.421211	1.250185	-8.745478	62.272570	43.933531
